HIERARCHY
ROOT Hips
{
	OFFSET 0.000000 0.000000 0.000000
	CHANNELS 6 Xposition Yposition Zposition Zrotation Yrotation Xrotation 
	JOINT LHipJoint
	{
		OFFSET 0.000000 0.000000 0.000000
		CHANNELS 3 Zrotation Yrotation Xrotation
		JOINT LeftUpLeg
		{
			OFFSET 1.363060 -1.794630 0.839290
			CHANNELS 3 Zrotation Yrotation Xrotation
			JOINT LeftLeg
			{
				OFFSET 2.448110 -6.726130 0.000000
				CHANNELS 3 Zrotation Yrotation Xrotation
				JOINT LeftFoot
				{
					OFFSET 2.562200 -7.039590 0.000000
					CHANNELS 3 Zrotation Yrotation Xrotation
					JOINT LeftToeBase
					{
						OFFSET 0.157640 -0.433110 2.322550
						CHANNELS 3 Zrotation Yrotation Xrotation
						End Site
						{
							OFFSET 0.000000 0.000000 0.000000
						}
					}
				}
			}
		}
	}
	JOINT RHipJoint
	{
		OFFSET 0.000000 0.000000 0.000000
		CHANNELS 3 Zrotation Yrotation Xrotation
		JOINT RightUpLeg
		{
			OFFSET -1.305520 -1.794630 0.839290
			CHANNELS 3 Zrotation Yrotation Xrotation
			JOINT RightLeg
			{
				OFFSET -2.542530 -6.985550 0.000000
				CHANNELS 3 Zrotation Yrotation Xrotation
				JOINT RightFoot
				{
					OFFSET -2.568260 -7.056230 0.000000
					CHANNELS 3 Zrotation Yrotation Xrotation
					JOINT RightToeBase
					{
						OFFSET -0.164730 -0.452590 2.363150
						CHANNELS 3 Zrotation Yrotation Xrotation
						End Site
						{
							OFFSET 0.000000 0.000000 0.000000
						}
					}
				}
			}
		}
	}
	JOINT LowerBack
	{
		OFFSET 0.000000 0.000000 0.000000
		CHANNELS 3 Zrotation Yrotation Xrotation
		JOINT Spine
		{
			OFFSET 0.028270 2.035590 -0.193380
			CHANNELS 3 Zrotation Yrotation Xrotation
			JOINT Spine1
			{
				OFFSET 0.056720 2.048850 -0.042750
				CHANNELS 3 Zrotation Yrotation Xrotation
				JOINT Neck
				{
					OFFSET 0.000000 0.000000 0.000000
					CHANNELS 3 Zrotation Yrotation Xrotation
					JOINT Neck1
					{
						OFFSET -0.054170 1.746240 0.172020
						CHANNELS 3 Zrotation Yrotation Xrotation
						JOINT Head
						{
							OFFSET 0.104070 1.761360 -0.123970
							CHANNELS 3 Zrotation Yrotation Xrotation
							End Site
							{
								OFFSET 0.000000 0.000000 0.000000
							}
						}
					}
				}
				JOINT LeftShoulder
				{
					OFFSET 0.000000 0.000000 0.000000
					CHANNELS 3 Zrotation Yrotation Xrotation
					JOINT LeftArm
					{
						OFFSET 3.362410 1.200890 -0.311210
						CHANNELS 3 Zrotation Yrotation Xrotation
						JOINT LeftForeArm
						{
							OFFSET 4.983000 -0.000000 -0.000000
							CHANNELS 3 Zrotation Yrotation Xrotation
							JOINT LeftHand
							{
								OFFSET 3.483560 -0.000000 -0.000000
								CHANNELS 3 Zrotation Yrotation Xrotation
								JOINT LeftFingerBase
								{
									OFFSET 0.000000 0.000000 0.000000
									CHANNELS 3 Zrotation Yrotation Xrotation
									JOINT LeftHandIndex1
									{
										OFFSET 0.715260 -0.000000 -0.000000
										CHANNELS 3 Zrotation Yrotation Xrotation
										End Site
										{
											OFFSET 0.000000 0.000000 0.000000
										}
									}
								}
								JOINT LThumb
								{
									OFFSET 0.000000 0.000000 0.000000
									CHANNELS 3 Zrotation Yrotation Xrotation
									End Site
									{
										OFFSET 0.000000 0.000000 0.000000
									}
								}
							}
						}
					}
				}
				JOINT RightShoulder
				{
					OFFSET 0.000000 0.000000 0.000000
					CHANNELS 3 Zrotation Yrotation Xrotation
					JOINT RightArm
					{
						OFFSET -3.136600 1.374050 -0.404650
						CHANNELS 3 Zrotation Yrotation Xrotation
						JOINT RightForeArm
						{
							OFFSET -5.241900 -0.000000 -0.000000
							CHANNELS 3 Zrotation Yrotation Xrotation
							JOINT RightHand
							{
								OFFSET -3.444170 -0.000000 -0.000000
								CHANNELS 3 Zrotation Yrotation Xrotation
								JOINT RightFingerBase
								{
									OFFSET 0.000000 0.000000 0.000000
									CHANNELS 3 Zrotation Yrotation Xrotation
									JOINT RightHandIndex1
									{
										OFFSET -0.622530 -0.000000 -0.000000
										CHANNELS 3 Zrotation Yrotation Xrotation
										End Site
										{
											OFFSET 0.000000 0.000000 0.000000
										}
									}
								}
								JOINT RThumb
								{
									OFFSET 0.000000 0.000000 0.000000
									CHANNELS 3 Zrotation Yrotation Xrotation
									End Site
									{
										OFFSET 0.000000 0.000000 0.000000
									}
								}
							}
						}
					}
				}
			}
		}
	}
}
MOTION
Frames: 5
Frame Time: 0.008333
0.945368 17.841868 -14.853408 -0.261097 -4.683590 8.370579 3.501121 2.884064 1.000581 -24.588512 -7.436208 -11.694758 0.828625 6.134847 19.733990 -0.237358 2.611958 -4.840252 0.007200 0.546900 1.502900 -5.766449 -3.542126 0.637415 29.143697 12.712473 -9.415818 -2.008197 -6.625675 21.479492 0.305928 -3.668020 -6.529392 -0.091000 -1.945600 5.355400 -0.361381 0.931813 5.864997 1.137769 0.869195 -0.567683 3.207720 0.903214 -4.214268 -7.944953 -2.066189 -12.389551 3.356002 -1.827936 21.870649 2.917700 -1.563600 11.834900 -6.799017 3.355158 -2.290083 -83.348359 4.800077 20.114715 15.233994 -26.863738 -4.333295 -0.493675 -2.577688 6.887396 15.850125 22.712685 7.042400 -7.125000 0.000000 0.000000 -14.694700 55.672200 -3.909300 5.087140 -2.746517 -2.145178 82.773518 -4.119138 17.525290 -19.124378 28.034997 -6.017761 0.427929 -0.442349 2.647217 -7.489037 14.001721 -1.987300 7.125000 0.000000 0.000000 13.270100 -15.684500 9.448800
0.947497 17.841868 -14.860998 -0.202305 -4.636576 8.432578 3.506980 2.878329 0.997918 -24.657959 -7.384301 -11.962674 0.855209 6.210748 19.935577 -0.213276 2.480396 -4.813044 0.006923 0.535804 1.472293 -5.765692 -3.541138 0.644437 29.051307 12.717141 -9.595549 -2.023502 -6.669477 21.596749 0.293652 -3.614298 -6.611750 -0.096363 -2.002098 5.511579 -0.415596 0.941101 5.966824 1.119290 0.878926 -0.576139 3.199816 0.911867 -4.295386 -7.792469 -2.029580 -12.309642 3.311956 -1.816225 21.827124 2.870818 -1.545661 11.795138 -6.771889 3.346537 -2.301147 -83.285415 4.921918 20.504712 15.505753 -27.250655 -4.482018 -0.383332 -2.632631 6.730763 14.860285 23.803278 6.809656 -7.125000 0.000000 0.000000 -16.447720 56.551762 -4.750672 5.067224 -2.742458 -2.144734 82.797293 -4.163563 17.679080 -19.288413 28.239860 -6.123622 0.407318 -0.392504 2.406960 -7.252445 13.419041 -1.839350 7.125000 0.000000 0.000000 13.473346 -16.314674 9.412367
0.951921 17.838977 -14.870714 -0.189244 -4.622388 8.486001 3.513548 2.872520 0.997208 -24.676307 -7.516000 -12.137396 0.883051 6.292447 20.153183 -0.217320 2.529490 -4.907183 0.012761 0.723885 1.989361 -5.765409 -3.540514 0.649226 28.996489 12.683874 -9.792130 -2.038548 -6.712481 21.711950 0.282969 -3.553152 -6.626632 -0.095866 -1.996508 5.496101 -0.377396 0.941120 6.072606 1.104375 0.884532 -0.566907 3.145053 0.914299 -4.340661 -7.702451 -1.999578 -12.240571 3.326958 -1.805665 21.740508 2.861054 -1.527128 11.742636 -6.752670 3.333377 -2.317484 -83.243926 4.937492 20.904756 15.828877 -27.614552 -4.496820 -0.122251 -2.994580 6.739911 12.637900 30.273537 6.873684 -7.125000 0.000000 0.000000 -24.474290 62.291262 -10.824348 5.052212 -2.728956 -2.136483 82.807859 -4.100212 17.816541 -19.391206 28.364542 -6.188341 0.398537 -0.364403 2.252721 -7.160761 13.098161 -1.769543 7.125000 0.000000 0.000000 13.559209 -16.659798 9.371093
0.953760 17.833505 -14.881083 -0.293908 -4.654534 8.589479 3.519014 2.863454 0.993395 -24.538670 -7.783402 -12.291061 0.906587 6.368524 20.347464 -0.235680 2.668239 -5.044671 0.021773 0.947122 2.603448 -5.771410 -3.536623 0.661206 29.072751 12.777403 -10.018133 -2.054445 -6.764425 21.847891 0.275003 -3.499902 -6.595782 -0.095700 -1.994855 5.491410 -0.239737 0.956445 6.128893 1.110973 0.917103 -0.529198 3.084013 0.925410 -4.291478 -7.753986 -2.024609 -12.366820 3.408031 -1.832707 21.737464 2.901180 -1.533698 11.776164 -6.738241 3.326922 -2.312136 -83.225094 4.762516 21.182618 15.946283 -27.839866 -4.684779 -0.307396 -2.745371 6.273507 14.548369 25.799386 7.036787 -7.125000 0.000000 0.000000 -18.450262 58.421689 -6.460440 5.042190 -2.716930 -2.132860 82.822824 -3.920608 17.939087 -19.491840 28.487201 -6.243878 0.416210 -0.384989 2.320464 -7.374423 13.415643 -1.869681 7.125000 0.000000 0.000000 13.386268 -16.318523 9.346497
0.954496 17.827302 -14.888115 -0.476806 -4.648977 8.692275 3.523394 2.854405 0.988604 -24.307263 -7.948612 -12.530266 0.937213 6.461304 20.587476 -0.233333 2.683888 -5.134588 0.026266 1.045892 2.875076 -5.779901 -3.531412 0.673294 29.254492 12.900474 -10.185159 -2.069219 -6.813797 21.981658 0.274318 -3.508240 -6.621010 -0.098914 -2.027811 5.582407 -0.036400 0.977100 6.188528 1.133780 0.962301 -0.489068 3.019803 0.941893 -4.237233 -7.823447 -2.080444 -12.558896 3.471773 -1.891086 21.804007 2.933813 -1.559349 11.858305 -6.720270 3.319187 -2.310504 -83.195096 4.605360 21.557929 16.090534 -28.079957 -4.851022 -0.433776 -2.563272 5.687922 15.849118 22.544722 6.980808 -7.125000 0.000000 0.000000 -14.626308 55.474977 -3.847318 5.031164 -2.705371 -2.130239 82.832305 -3.758852 18.049034 -19.615195 28.637974 -6.308043 0.450488 -0.428012 2.494316 -7.795143 14.043656 -2.075538 7.125000 0.000000 0.000000 13.050466 -15.639114 9.295113
